<svg xmlns="http://www.w3.org/2000/svg" xmlns:svg="http://www.w3.org/2000/svg" style="display:inline;enable-background:new" id="svg11300" width="128" height="128" version="1.0" viewBox="0 0 128 128"><title id="title4162">Adwaita Icon Template</title><metadata id="metadata4"/><g style="display:inline" id="layer1" transform="translate(0,-172)"><g style="display:inline" id="layer9"><g id="g211" transform="translate(-8.5,-20.000002)"><g id="g2147" transform="translate(376.5,19.999882)" style="display:inline;enable-background:new"><rect style="display:inline;opacity:1;vector-effect:none;fill:#ef2975;fill-opacity:1;stroke:none;stroke-width:.24999999;stroke-linecap:butt;stroke-linejoin:miter;stroke-miterlimit:4;stroke-dasharray:none;stroke-dashoffset:0;stroke-opacity:1;marker:none;marker-start:none;marker-mid:none;marker-end:none;paint-order:normal;enable-background:new" id="rect2145" width="104" height="104" x="-356" y="184" rx="8" ry="8"/></g><path style="display:inline;fill:#fff;stroke-width:1;enable-background:new" id="path22" d="m 92.100159,230.55017 -1.75001,8.45003 c -0.2,0.90001 -1.05001,1.70001 -2.10001,1.70001 h -15.20006 c -1.70001,0 -3.10002,1.40001 -3.10002,3.10002 v 1.85 c 0,1.70001 1.40001,3.10002 3.10002,3.10002 h 12.85005 c 1.20001,0 2.20001,1.15 1.95001,2.40001 -0.25,1.3 -1.60001,7.90003 -1.75001,8.60003 -0.1,0.75001 -0.9,1.70001 -2.10001,1.70001 h -10.50004 c -2.20001,0.05 -2.65001,0.1 -3.95002,1.70001 -1.3,1.6 -12.80005,16.00006 -12.80005,16.00006 -0.1,0.15001 -0.2,0.1 -0.2,-0.05 v -48.9502 c 0,-1.15001 0.95,-2.10001 2.10001,-2.10001 h 31.55013 c 1.1,0 2.20001,1.1 1.90001,2.50001 m 2.30001,-10.55005 c 0,0 -33.55015,0 -38.95017,0 -5.35002,0 -6.95003,4.05002 -6.95003,6.60003 v 61.90026 c 0,3.05002 1.55001,3.95002 2.40001,4.30002 0.85001,0.35 3.10002,0.6 4.70002,-1 0,0 18.50008,-21.55009 18.80008,-21.90009 0.3,-0.35001 0.45,-0.35001 0.65,-0.35001 0.20001,0 7.85004,0 11.70005,0 5.00003,0 5.95003,-3.45001 6.50003,-5.55002 0.45,-1.75001 5.600031,-26.75011 7.200031,-34.65015 1.20001,-6.10002 -0.35,-9.35004 -6.050021,-9.35004"/></g></g></g></svg>